<svg xmlns="http://www.w3.org/2000/svg" xmlns:xlink="http://www.w3.org/1999/xlink" width="500" zoomAndPan="magnify" viewBox="0 0 375 374.999991" height="500" preserveAspectRatio="xMidYMid meet" version="1.0"><defs><clipPath id="fc132331b1"><path d="M 61.832031 236 L 108 236 L 108 286 L 61.832031 286 Z M 61.832031 236 " clip-rule="nonzero"/></clipPath><clipPath id="f6b2e18c93"><path d="M 133 236 L 179.582031 236 L 179.582031 286 L 133 286 Z M 133 236 " clip-rule="nonzero"/></clipPath></defs><path fill="#b68d40" d="M 119.636719 252.480469 C 121.65625 244.488281 119.636719 235.707031 117.476562 229.730469 L 116.847656 227.902344 L 114.992188 228.453125 C 103.558594 231.886719 96.46875 242.457031 96.46875 256.054688 C 96.46875 270.773438 104.871094 282.199219 117.375 284.230469 L 120.445312 284.757812 L 119.675781 281.730469 C 118.339844 276.949219 117.667969 272.074219 117.660156 267.109375 C 117.652344 262.140625 118.3125 257.265625 119.636719 252.480469 Z M 115.71875 251.484375 C 114.453125 256.035156 113.761719 260.675781 113.636719 265.402344 C 113.515625 270.128906 113.964844 274.800781 114.992188 279.414062 C 106.207031 276.425781 100.511719 267.421875 100.511719 256.035156 C 100.511719 245.101562 105.742188 236.460938 114.34375 233.003906 C 115.757812 237.742188 117.3125 245.058594 115.71875 251.484375 Z M 115.71875 251.484375 " fill-opacity="1" fill-rule="nonzero"/><path fill="#b68d40" d="M 144.945312 256.054688 C 144.945312 241.175781 136.441406 229.832031 123.777344 227.839844 L 120.402344 227.3125 L 121.554688 230.523438 C 123.574219 236.15625 125.59375 244.367188 123.777344 251.503906 C 122.402344 256.535156 121.71875 261.660156 121.71875 266.882812 C 121.71875 272.101562 122.402344 277.226562 123.777344 282.257812 L 124.28125 284.292969 L 126.300781 283.703125 C 137.773438 280.347656 144.945312 269.738281 144.945312 256.054688 Z M 127.128906 279.109375 C 126.121094 274.714844 125.667969 270.265625 125.765625 265.757812 C 125.867188 261.25 126.515625 256.824219 127.714844 252.480469 C 128.359375 249.179688 128.574219 245.851562 128.363281 242.496094 C 128.148438 239.140625 127.515625 235.871094 126.464844 232.679688 C 135.207031 235.6875 140.863281 244.652344 140.863281 256.054688 C 140.90625 267.011719 135.671875 275.652344 127.128906 279.109375 Z M 127.128906 279.109375 " fill-opacity="1" fill-rule="nonzero"/><g clip-path="url(#fc132331b1)"><path fill="#b68d40" d="M 94.855469 269.738281 C 94.371094 268.496094 93.972656 267.230469 93.664062 265.9375 C 92.824219 262.675781 92.414062 259.363281 92.429688 255.996094 C 92.386719 251.300781 93.214844 246.769531 94.914062 242.394531 L 95.640625 240.503906 L 93.785156 239.753906 C 81.726562 234.914062 64.71875 236.746094 64.011719 236.828125 L 62.398438 237.007812 L 62.214844 238.636719 C 61.570312 245.546875 61.738281 252.4375 62.722656 259.308594 L 63.023438 261.015625 C 63.644531 264.667969 64.800781 268.136719 66.496094 271.425781 C 67.394531 273.199219 68.53125 274.796875 69.910156 276.222656 C 78.132812 284.453125 93.621094 285.695312 102.226562 285.695312 L 107.742188 285.695312 L 103.4375 282.199219 C 101.503906 280.523438 99.8125 278.628906 98.359375 276.519531 C 96.90625 274.40625 95.738281 272.148438 94.855469 269.738281 Z M 69.566406 268.457031 C 68.472656 266.074219 67.671875 263.59375 67.164062 261.015625 L 83.320312 261.015625 L 89.90625 267.5625 L 90.148438 268.457031 Z M 79.34375 256.949219 L 66.476562 256.949219 C 65.902344 252.46875 65.699219 247.96875 65.871094 243.453125 Z M 88.632812 260.527344 L 83.382812 255.265625 L 83.382812 241.277344 C 85.78125 241.628906 88.136719 242.171875 90.453125 242.90625 C 89.066406 247.179688 88.394531 251.5625 88.433594 256.054688 C 88.417969 257.550781 88.484375 259.042969 88.632812 260.527344 Z M 79.34375 240.8125 L 79.34375 251.199219 L 68.800781 240.585938 C 72.320312 240.429688 75.832031 240.503906 79.34375 240.8125 Z M 72.820312 273.335938 C 72.5625 273.078125 72.328125 272.796875 72.113281 272.5 L 91.644531 272.5 C 93.019531 275.769531 94.84375 278.757812 97.117188 281.464844 C 89.140625 281 78.617188 279.210938 72.820312 273.355469 Z M 72.820312 273.335938 " fill-opacity="1" fill-rule="nonzero"/></g><g clip-path="url(#f6b2e18c93)"><path fill="#b68d40" d="M 179.179688 238.636719 L 178.976562 237.007812 L 177.378906 236.828125 C 176.652344 236.828125 159.667969 234.9375 147.589844 239.816406 L 145.730469 240.566406 L 146.480469 242.457031 C 148.167969 246.832031 148.996094 251.363281 148.964844 256.054688 C 148.972656 259.402344 148.566406 262.695312 147.75 265.9375 C 147.4375 267.21875 147.035156 268.472656 146.539062 269.695312 C 145.667969 272.117188 144.503906 274.386719 143.046875 276.503906 C 141.59375 278.621094 139.894531 280.519531 137.957031 282.199219 L 133.734375 285.695312 L 139.269531 285.695312 C 147.769531 285.695312 163.28125 284.453125 171.460938 276.242188 C 172.855469 274.816406 174.011719 273.214844 174.9375 271.445312 C 176.628906 268.148438 177.789062 264.671875 178.410156 261.015625 L 178.734375 259.308594 C 179.710938 252.4375 179.859375 245.542969 179.179688 238.636719 Z M 174.9375 256.929688 L 162.050781 256.929688 L 175.460938 243.433594 C 175.652344 247.953125 175.476562 252.460938 174.9375 256.949219 Z M 171.847656 268.4375 L 151.246094 268.4375 C 151.246094 268.132812 151.425781 267.847656 151.507812 267.542969 L 158.011719 260.996094 L 174.167969 260.996094 C 173.691406 263.574219 172.914062 266.0625 171.847656 268.457031 Z M 172.59375 240.566406 L 162.050781 251.179688 L 162.050781 240.8125 C 165.5625 240.523438 169.074219 240.449219 172.59375 240.585938 Z M 158.011719 241.257812 L 158.011719 255.242188 L 152.71875 260.527344 C 152.859375 259.066406 152.960938 257.5625 152.960938 256.054688 C 153 251.5625 152.328125 247.179688 150.941406 242.90625 C 153.253906 242.167969 155.609375 241.628906 158.011719 241.277344 Z M 144.296875 281.488281 C 146.570312 278.777344 148.398438 275.789062 149.769531 272.523438 L 169.300781 272.523438 C 169.058594 272.808594 168.835938 273.113281 168.59375 273.355469 C 162.820312 279.210938 152.277344 281 144.296875 281.488281 Z M 144.296875 281.488281 " fill-opacity="1" fill-rule="nonzero"/></g></svg>