<svg xmlns="http://www.w3.org/2000/svg" xmlns:xlink="http://www.w3.org/1999/xlink" width="500" zoomAndPan="magnify" viewBox="0 0 375 374.999991" height="500" preserveAspectRatio="xMidYMid meet" version="1.0"><defs><g/><clipPath id="206d1a3776"><path d="M 121 165 L 199.257812 165 L 199.257812 249 L 121 249 Z M 121 165 " clip-rule="nonzero"/></clipPath></defs><path fill="#b68d40" d="M 97.816406 192.78125 C 101.234375 179.351562 97.816406 164.585938 94.160156 154.535156 L 93.101562 151.460938 L 89.957031 152.382812 C 70.609375 158.160156 58.613281 175.933594 58.613281 198.796875 C 58.613281 223.542969 72.832031 242.753906 93.988281 246.171875 L 99.183594 247.058594 L 97.886719 241.964844 C 96.757812 237.964844 95.910156 233.90625 95.335938 229.789062 C 94.765625 225.671875 94.476562 221.535156 94.472656 217.378906 C 94.464844 213.222656 94.742188 209.085938 95.304688 204.964844 C 95.863281 200.847656 96.699219 196.785156 97.816406 192.78125 Z M 91.1875 191.109375 C 89.046875 198.765625 87.875 206.566406 87.667969 214.511719 C 87.457031 222.460938 88.222656 230.3125 89.957031 238.070312 C 75.089844 233.046875 65.449219 217.90625 65.449219 198.765625 C 65.449219 180.375 74.300781 165.851562 88.863281 160.039062 C 91.253906 168.003906 93.886719 180.308594 91.1875 191.109375 Z M 91.1875 191.109375 " fill-opacity="1" fill-rule="nonzero"/><path fill="#b68d40" d="M 140.640625 198.796875 C 140.640625 173.78125 126.253906 154.707031 104.824219 151.359375 L 99.117188 150.46875 L 101.0625 155.871094 C 104.480469 165.335938 107.898438 179.144531 104.824219 191.140625 C 103.667969 195.355469 102.796875 199.625 102.214844 203.953125 C 101.628906 208.28125 101.339844 212.628906 101.339844 217 C 101.339844 221.367188 101.628906 225.714844 102.214844 230.042969 C 102.796875 234.371094 103.667969 238.644531 104.824219 242.855469 L 105.675781 246.273438 L 109.09375 245.28125 C 128.507812 239.640625 140.640625 221.800781 140.640625 198.796875 Z M 110.496094 237.558594 C 108.792969 230.171875 108.023438 222.6875 108.191406 215.109375 C 108.359375 207.527344 109.457031 200.085938 111.488281 192.78125 C 112.578125 187.234375 112.941406 181.640625 112.582031 176 C 112.222656 170.359375 111.152344 164.855469 109.367188 159.492188 C 124.167969 164.550781 133.738281 179.625 133.738281 198.796875 C 133.804688 217.222656 124.953125 231.746094 110.496094 237.558594 Z M 110.496094 237.558594 " fill-opacity="1" fill-rule="nonzero"/><path fill="#b68d40" d="M 55.878906 221.800781 C 55.0625 219.71875 54.386719 217.585938 53.863281 215.410156 C 52.445312 209.929688 51.75 204.355469 51.78125 198.695312 C 51.707031 190.804688 53.109375 183.179688 55.984375 175.832031 L 57.214844 172.652344 L 54.070312 171.386719 C 33.664062 163.253906 4.886719 166.328125 3.691406 166.464844 L 0.957031 166.773438 L 0.648438 169.507812 C -0.441406 181.128906 -0.15625 192.714844 1.503906 204.265625 L 2.015625 207.136719 C 3.0625 213.277344 5.023438 219.109375 7.894531 224.636719 C 9.410156 227.621094 11.335938 230.308594 13.671875 232.703125 C 27.582031 246.546875 53.796875 248.632812 68.355469 248.632812 L 77.6875 248.632812 L 70.40625 242.753906 C 67.136719 239.933594 64.269531 236.75 61.808594 233.199219 C 59.351562 229.652344 57.375 225.851562 55.878906 221.800781 Z M 13.089844 219.648438 C 11.234375 215.640625 9.878906 211.46875 9.023438 207.136719 L 36.363281 207.136719 L 47.507812 218.144531 L 47.917969 219.648438 Z M 29.632812 200.300781 L 7.859375 200.300781 C 6.886719 192.765625 6.542969 185.199219 6.835938 177.609375 Z M 45.355469 206.316406 L 36.46875 197.464844 L 36.46875 173.949219 C 40.527344 174.542969 44.515625 175.453125 48.429688 176.683594 C 46.085938 183.871094 44.945312 191.242188 45.011719 198.796875 C 44.988281 201.3125 45.101562 203.816406 45.355469 206.316406 Z M 29.632812 173.164062 L 29.632812 190.628906 L 11.792969 172.789062 C 17.746094 172.523438 23.695312 172.648438 29.632812 173.164062 Z M 18.59375 227.851562 C 18.15625 227.414062 17.757812 226.949219 17.398438 226.449219 L 50.445312 226.449219 C 52.773438 231.941406 55.859375 236.964844 59.707031 241.523438 C 46.207031 240.734375 28.402344 237.726562 18.59375 227.882812 Z M 18.59375 227.851562 " fill-opacity="1" fill-rule="nonzero"/><g clip-path="url(#206d1a3776)"><path fill="#b68d40" d="M 198.574219 169.507812 L 198.230469 166.773438 L 195.53125 166.464844 C 194.300781 166.464844 165.558594 163.285156 145.117188 171.488281 L 141.972656 172.753906 L 143.238281 175.933594 C 146.097656 183.285156 147.496094 190.910156 147.441406 198.796875 C 147.457031 204.421875 146.773438 209.957031 145.390625 215.410156 C 144.863281 217.566406 144.179688 219.675781 143.339844 221.730469 C 141.863281 225.800781 139.894531 229.617188 137.433594 233.179688 C 134.972656 236.742188 132.101562 239.933594 128.816406 242.753906 L 121.671875 248.632812 L 131.039062 248.632812 C 145.425781 248.632812 171.675781 246.546875 185.515625 232.738281 C 187.875 230.339844 189.832031 227.648438 191.394531 224.671875 C 194.261719 219.132812 196.222656 213.285156 197.273438 207.136719 L 197.820312 204.265625 C 199.476562 192.710938 199.726562 181.125 198.574219 169.507812 Z M 191.394531 200.269531 L 169.589844 200.269531 L 192.285156 177.574219 C 192.605469 185.171875 192.308594 192.75 191.394531 200.300781 Z M 186.167969 219.613281 L 151.304688 219.613281 C 151.304688 219.101562 151.613281 218.621094 151.75 218.109375 L 162.753906 207.105469 L 190.097656 207.105469 C 189.285156 211.441406 187.976562 215.621094 186.167969 219.648438 Z M 187.429688 172.753906 L 169.589844 190.59375 L 169.589844 173.164062 C 175.53125 172.683594 181.476562 172.558594 187.429688 172.789062 Z M 162.753906 173.917969 L 162.753906 197.429688 L 153.800781 206.316406 C 154.039062 203.855469 154.210938 201.328125 154.210938 198.796875 C 154.273438 191.242188 153.136719 183.871094 150.792969 176.683594 C 154.707031 175.449219 158.691406 174.539062 162.753906 173.949219 Z M 139.546875 241.554688 C 143.398438 237 146.484375 231.976562 148.808594 226.484375 L 181.859375 226.484375 C 181.449219 226.960938 181.074219 227.472656 180.664062 227.882812 C 170.890625 237.726562 153.046875 240.734375 139.546875 241.554688 Z M 139.546875 241.554688 " fill-opacity="1" fill-rule="nonzero"/></g><g fill="#b68d40" fill-opacity="1"><g transform="translate(213.974339, 213.142968)"><g><path d="M 7.375 -10.8125 L 7.375 -9.140625 L 3.328125 -9.140625 L 3.328125 -6.3125 L 6.921875 -6.3125 L 6.921875 -4.640625 L 3.328125 -4.640625 L 3.328125 -1.671875 L 7.375 -1.671875 L 7.375 0 L 1.15625 0 L 1.15625 -10.8125 Z M 7.375 -10.8125 "/></g></g></g><g fill="#b68d40" fill-opacity="1"><g transform="translate(223.18694, 213.142968)"><g><path d="M 12.90625 -10.78125 L 12.90625 0 L 10.75 0 L 10.75 -6.8125 L 7.8125 0 L 6.25 0 L 3.328125 -6.78125 L 3.328125 0 L 1.15625 0 L 1.15625 -10.78125 L 3.578125 -10.78125 L 7.046875 -2.796875 L 10.5 -10.78125 Z M 12.90625 -10.78125 "/></g></g></g><g fill="#b68d40" fill-opacity="1"><g transform="translate(238.01654, 213.142968)"><g><path d="M 8.203125 -5.40625 C 7.921875 -5.0625 7.515625 -4.789062 6.984375 -4.59375 C 6.453125 -4.394531 5.832031 -4.296875 5.125 -4.296875 L 3.328125 -4.296875 L 3.328125 0 L 1.15625 0 L 1.15625 -10.78125 L 5.125 -10.78125 C 6.375 -10.78125 7.332031 -10.46875 8 -9.84375 C 8.675781 -9.21875 9.015625 -8.484375 9.015625 -7.640625 C 9.015625 -6.796875 8.742188 -6.050781 8.203125 -5.40625 Z M 3.328125 -5.953125 L 5.125 -5.953125 C 5.664062 -5.953125 6.082031 -6.09375 6.375 -6.375 C 6.664062 -6.664062 6.8125 -7.050781 6.8125 -7.53125 C 6.8125 -8.019531 6.664062 -8.40625 6.375 -8.6875 C 6.082031 -8.96875 5.664062 -9.109375 5.125 -9.109375 L 3.328125 -9.109375 Z M 3.328125 -5.953125 "/></g></g></g><g fill="#b68d40" fill-opacity="1"><g transform="translate(248.278467, 213.142968)"><g><path d="M 8.4375 -2.84375 C 9.050781 -3.488281 9.359375 -4.347656 9.359375 -5.421875 C 9.359375 -6.492188 9.050781 -7.347656 8.4375 -7.984375 C 7.832031 -8.617188 7.039062 -8.9375 6.0625 -8.9375 C 5.082031 -8.9375 4.285156 -8.613281 3.671875 -7.96875 C 3.066406 -7.332031 2.765625 -6.476562 2.765625 -5.40625 C 2.765625 -4.34375 3.066406 -3.488281 3.671875 -2.84375 C 4.285156 -2.207031 5.082031 -1.890625 6.0625 -1.890625 C 7.039062 -1.890625 7.832031 -2.207031 8.4375 -2.84375 Z M 6.0625 0.109375 C 4.507812 0.109375 3.203125 -0.410156 2.140625 -1.453125 C 1.085938 -2.492188 0.5625 -3.8125 0.5625 -5.40625 C 0.5625 -7.007812 1.09375 -8.332031 2.15625 -9.375 C 3.21875 -10.414062 4.519531 -10.9375 6.0625 -10.9375 C 7.613281 -10.9375 8.921875 -10.414062 9.984375 -9.375 C 11.046875 -8.332031 11.578125 -7.007812 11.578125 -5.40625 C 11.578125 -3.8125 11.046875 -2.492188 9.984375 -1.453125 C 8.921875 -0.410156 7.613281 0.109375 6.0625 0.109375 Z M 6.0625 0.109375 "/></g></g></g><g fill="#b68d40" fill-opacity="1"><g transform="translate(261.179154, 213.142968)"><g><path d="M 3.328125 -4.296875 L 3.328125 0 L 1.15625 0 L 1.15625 -10.78125 L 5.125 -10.78125 C 6.375 -10.78125 7.332031 -10.46875 8 -9.84375 C 8.675781 -9.21875 9.015625 -8.445312 9.015625 -7.53125 C 9.015625 -6.851562 8.804688 -6.21875 8.390625 -5.625 C 7.984375 -5.039062 7.335938 -4.644531 6.453125 -4.4375 L 9.203125 0 L 6.625 0 L 4.046875 -4.296875 Z M 3.328125 -9.109375 L 3.328125 -5.953125 L 5.125 -5.953125 C 5.664062 -5.953125 6.082031 -6.09375 6.375 -6.375 C 6.664062 -6.664062 6.8125 -7.050781 6.8125 -7.53125 C 6.8125 -8.019531 6.664062 -8.40625 6.375 -8.6875 C 6.082031 -8.96875 5.664062 -9.109375 5.125 -9.109375 Z M 3.328125 -9.109375 "/></g></g></g><g fill="#b68d40" fill-opacity="1"><g transform="translate(271.965751, 213.142968)"><g><path d="M 1.15625 0 L 1.15625 -10.78125 L 3.328125 -10.78125 L 3.328125 0 Z M 1.15625 0 "/></g></g></g><g fill="#b68d40" fill-opacity="1"><g transform="translate(277.227936, 213.142968)"><g><path d="M 1.125 -4.140625 L 1.125 -10.78125 L 3.296875 -10.78125 L 3.296875 -4.140625 C 3.296875 -3.398438 3.484375 -2.835938 3.859375 -2.453125 C 4.242188 -2.078125 4.785156 -1.890625 5.484375 -1.890625 C 6.179688 -1.890625 6.71875 -2.078125 7.09375 -2.453125 C 7.476562 -2.835938 7.671875 -3.398438 7.671875 -4.140625 L 7.671875 -10.78125 L 9.828125 -10.78125 L 9.828125 -4.140625 C 9.828125 -2.773438 9.398438 -1.722656 8.546875 -0.984375 C 7.691406 -0.253906 6.648438 0.109375 5.421875 0.109375 C 4.203125 0.109375 3.179688 -0.253906 2.359375 -0.984375 C 1.535156 -1.710938 1.125 -2.765625 1.125 -4.140625 Z M 1.125 -4.140625 "/></g></g></g><g fill="#b68d40" fill-opacity="1"><g transform="translate(288.940414, 213.142968)"><g><path d="M 12.90625 -10.78125 L 12.90625 0 L 10.75 0 L 10.75 -6.8125 L 7.8125 0 L 6.25 0 L 3.328125 -6.78125 L 3.328125 0 L 1.15625 0 L 1.15625 -10.78125 L 3.578125 -10.78125 L 7.046875 -2.796875 L 10.5 -10.78125 Z M 12.90625 -10.78125 "/></g></g></g><g fill="#b68d40" fill-opacity="1"><g transform="translate(303.770016, 213.142968)"><g/></g></g><g fill="#b68d40" fill-opacity="1"><g transform="translate(309.171083, 213.142968)"><g><path d="M 2.140625 -1.46875 C 1.085938 -2.507812 0.5625 -3.828125 0.5625 -5.421875 C 0.5625 -7.015625 1.09375 -8.332031 2.15625 -9.375 C 3.21875 -10.414062 4.519531 -10.9375 6.0625 -10.9375 C 7.238281 -10.9375 8.28125 -10.632812 9.1875 -10.03125 C 10.101562 -9.4375 10.753906 -8.597656 11.140625 -7.515625 L 8.53125 -7.515625 C 8.050781 -8.460938 7.226562 -8.9375 6.0625 -8.9375 C 5.082031 -8.9375 4.285156 -8.613281 3.671875 -7.96875 C 3.066406 -7.332031 2.765625 -6.476562 2.765625 -5.40625 C 2.765625 -4.34375 3.066406 -3.488281 3.671875 -2.84375 C 4.285156 -2.207031 5.082031 -1.890625 6.0625 -1.890625 C 7.21875 -1.890625 8.039062 -2.359375 8.53125 -3.296875 L 11.140625 -3.296875 C 10.753906 -2.222656 10.101562 -1.390625 9.1875 -0.796875 C 8.28125 -0.203125 7.238281 0.09375 6.0625 0.09375 C 4.507812 0.09375 3.203125 -0.425781 2.140625 -1.46875 Z M 2.140625 -1.46875 "/></g></g></g><g fill="#b68d40" fill-opacity="1"><g transform="translate(321.809437, 213.142968)"><g><path d="M 8.4375 -2.84375 C 9.050781 -3.488281 9.359375 -4.347656 9.359375 -5.421875 C 9.359375 -6.492188 9.050781 -7.347656 8.4375 -7.984375 C 7.832031 -8.617188 7.039062 -8.9375 6.0625 -8.9375 C 5.082031 -8.9375 4.285156 -8.613281 3.671875 -7.96875 C 3.066406 -7.332031 2.765625 -6.476562 2.765625 -5.40625 C 2.765625 -4.34375 3.066406 -3.488281 3.671875 -2.84375 C 4.285156 -2.207031 5.082031 -1.890625 6.0625 -1.890625 C 7.039062 -1.890625 7.832031 -2.207031 8.4375 -2.84375 Z M 6.0625 0.109375 C 4.507812 0.109375 3.203125 -0.410156 2.140625 -1.453125 C 1.085938 -2.492188 0.5625 -3.8125 0.5625 -5.40625 C 0.5625 -7.007812 1.09375 -8.332031 2.15625 -9.375 C 3.21875 -10.414062 4.519531 -10.9375 6.0625 -10.9375 C 7.613281 -10.9375 8.921875 -10.414062 9.984375 -9.375 C 11.046875 -8.332031 11.578125 -7.007812 11.578125 -5.40625 C 11.578125 -3.8125 11.046875 -2.492188 9.984375 -1.453125 C 8.921875 -0.410156 7.613281 0.109375 6.0625 0.109375 Z M 6.0625 0.109375 "/></g></g></g><g fill="#b68d40" fill-opacity="1"><g transform="translate(334.710123, 213.142968)"><g><path d="M 1.15625 0 L 1.15625 -10.78125 L 7.828125 -10.78125 L 7.828125 -9.109375 L 3.328125 -9.109375 L 3.328125 -6.28125 L 6.765625 -6.28125 L 6.765625 -4.609375 L 3.328125 -4.609375 L 3.328125 0 Z M 1.15625 0 "/></g></g></g><g fill="#b68d40" fill-opacity="1"><g transform="translate(343.860997, 213.142968)"><g><path d="M 1.15625 0 L 1.15625 -10.78125 L 7.828125 -10.78125 L 7.828125 -9.109375 L 3.328125 -9.109375 L 3.328125 -6.28125 L 6.765625 -6.28125 L 6.765625 -4.609375 L 3.328125 -4.609375 L 3.328125 0 Z M 1.15625 0 "/></g></g></g><g fill="#b68d40" fill-opacity="1"><g transform="translate(353.011871, 213.142968)"><g><path d="M 7.375 -10.8125 L 7.375 -9.140625 L 3.328125 -9.140625 L 3.328125 -6.3125 L 6.921875 -6.3125 L 6.921875 -4.640625 L 3.328125 -4.640625 L 3.328125 -1.671875 L 7.375 -1.671875 L 7.375 0 L 1.15625 0 L 1.15625 -10.8125 Z M 7.375 -10.8125 "/></g></g></g><g fill="#b68d40" fill-opacity="1"><g transform="translate(362.224474, 213.142968)"><g><path d="M 7.375 -10.8125 L 7.375 -9.140625 L 3.328125 -9.140625 L 3.328125 -6.3125 L 6.921875 -6.3125 L 6.921875 -4.640625 L 3.328125 -4.640625 L 3.328125 -1.671875 L 7.375 -1.671875 L 7.375 0 L 1.15625 0 L 1.15625 -10.8125 Z M 7.375 -10.8125 "/></g></g></g><g fill="#b68d40" fill-opacity="1"><g transform="translate(293.423166, 224.304644)"><g/></g></g></svg>